<?xml version="1.0" encoding="UTF-8"?>
<svg xmlns="http://www.w3.org/2000/svg" viewBox="0 0 1200 900" role="img" aria-label="Triada pro suite prototype">
  
  <defs>
    <linearGradient id="bgSoft" x1="0%" y1="0%" x2="100%" y2="100%">
      <stop offset="0%" stop-color="#f9f9ff"/>
      <stop offset="100%" stop-color="#eef4ff"/>
    </linearGradient>
    <linearGradient id="bgBlue" x1="0%" y1="0%" x2="100%" y2="100%">
      <stop offset="0%" stop-color="#edf9ff"/>
      <stop offset="100%" stop-color="#d8efff"/>
    </linearGradient>
    <linearGradient id="bgDark" x1="0%" y1="0%" x2="100%" y2="100%">
      <stop offset="0%" stop-color="#15184b"/>
      <stop offset="100%" stop-color="#0d1036"/>
    </linearGradient>
    <filter id="shadow" x="-20%" y="-20%" width="140%" height="160%">
      <feDropShadow dx="0" dy="22" stdDeviation="18" flood-color="#21304f" flood-opacity="0.16"/>
    </filter>
    <filter id="shadowSoft" x="-20%" y="-20%" width="140%" height="160%">
      <feDropShadow dx="0" dy="12" stdDeviation="10" flood-color="#21304f" flood-opacity="0.12"/>
    </filter>
    <filter id="glow" x="-35%" y="-35%" width="170%" height="170%">
      <feDropShadow dx="0" dy="0" stdDeviation="18" flood-color="#bffb00" flood-opacity="0.4"/>
    </filter>
    <marker id="arrow" viewBox="0 0 10 10" refX="8.5" refY="5" markerWidth="7" markerHeight="7" orient="auto-start-reverse">
      <path d="M 0 0 L 10 5 L 0 10 z" fill="currentColor"/>
    </marker>
  </defs>

  <rect width="1200" height="900" fill="url(#bgSoft)"/>
  
      <circle cx="1040" cy="178" r="92" fill="#edf7d8"/>
      
  <rect x="110" y="126" width="758" height="612" rx="42" fill="#ffffff" stroke="#dfe8fb" stroke-width="8"/>

      <rect x="154" y="182" width="166" height="24" rx="12" fill="#8bd100"/>
      <rect x="154" y="236" width="286" height="16" rx="8" fill="#dfe8fb"/>
      <rect x="154" y="276" width="218" height="16" rx="8" fill="#dfe8fb"/>
      <rect x="154" y="340" width="628" height="86" rx="28" fill="#f8fbff" stroke="#e0e8fb" stroke-width="6"/>
      <rect x="154" y="452" width="628" height="86" rx="28" fill="#f8fbff" stroke="#e0e8fb" stroke-width="6"/>
      <rect x="154" y="564" width="628" height="86" rx="28" fill="#f8fbff" stroke="#e0e8fb" stroke-width="6"/>
      <circle cx="194" cy="383" r="16" fill="#1cb0f6"/>
      <circle cx="194" cy="495" r="16" fill="#8a4cfc"/>
      <circle cx="194" cy="607" r="16" fill="#ffb000"/>
      <rect x="238" y="366" width="140" height="18" rx="9" fill="#dfe8fb"/>
      <rect x="238" y="478" width="164" height="18" rx="9" fill="#dfe8fb"/>
      <rect x="238" y="590" width="122" height="18" rx="9" fill="#dfe8fb"/>
      <rect x="490" y="360" width="232" height="28" rx="14" fill="#caff00"/>
      <rect x="490" y="472" width="186" height="28" rx="14" fill="#1cb0f6"/>
      <rect x="490" y="584" width="214" height="28" rx="14" fill="#8bd100"/>
      
  <g transform="translate(918 604) scale(1.12)">
    <ellipse cx="0" cy="176" rx="68" ry="14" fill="#22324a" opacity="0.13"/>
    <rect x="-50" y="86" width="100" height="114" rx="40" fill="#f6b31a"/>
    <rect x="-18" y="112" width="36" height="78" rx="18" fill="#f7fbff" opacity="0.95"/>
    <circle cx="0" cy="46" r="68" fill="#f7fbff"/>
    <circle cx="-42" cy="0" r="26" fill="#24344a"/>
    <circle cx="42" cy="0" r="26" fill="#24344a"/>
    <ellipse cx="-26" cy="34" rx="20" ry="24" fill="#24344a" transform="rotate(-20 -26 34)"/>
    <ellipse cx="26" cy="34" rx="20" ry="24" fill="#24344a" transform="rotate(20 26 34)"/>
    <circle cx="-22" cy="44" r="8" fill="#263143"/>
    <circle cx="22" cy="44" r="8" fill="#263143"/>
    <circle cx="-19" cy="41" r="2.2" fill="#ffffff"/>
    <circle cx="25" cy="41" r="2.2" fill="#ffffff"/>
    <ellipse cx="0" cy="56" rx="26" ry="22" fill="#fff9f3"/>
    <circle cx="0" cy="54" r="6.6" fill="#8bd100"/>
    <path d="M-8 64 C-2 70, 2 70, 8 64" fill="none" stroke="#24344a" stroke-width="5" stroke-linecap="round"/>
    <circle cx="-46" cy="56" r="8" fill="#ffb7be" opacity="0.8"/>
    <circle cx="46" cy="56" r="8" fill="#ffb7be" opacity="0.8"/>
    <rect x="-78" y="92" width="28" height="70" rx="14" fill="#f6b31a" transform="rotate(-24 -78 92)"/>
    <rect x="50" y="80" width="28" height="84" rx="14" fill="#f6b31a" transform="rotate(18 50 80)"/>
    <rect x="-45" y="168" width="28" height="22" rx="10" fill="#8bd100"/>
    <rect x="17" y="168" width="28" height="22" rx="10" fill="#8bd100"/>
    <path d="M-73 133 C-90 154, -86 166, -66 170" fill="none" stroke="#24344a" stroke-width="7" stroke-linecap="round"/>
    <path d="M71 122 C88 144, 92 158, 82 170" fill="none" stroke="#24344a" stroke-width="7" stroke-linecap="round"/>
  </g>

      <circle cx="878" cy="322" r="54" fill="#caff00"/>
      <rect x="846" y="296" width="24" height="92" rx="12" fill="#ffffff"/>
      <rect x="860" y="296" width="24" height="92" rx="12" fill="#24344a"/>
      <path d="M140 756 C240 726, 330 724, 410 752" fill="none" stroke="#1cb0f6" stroke-width="12" stroke-linecap="round"/>
      <circle cx="164" cy="760" r="18" fill="#8a4cfc"/>
      <circle cx="390" cy="744" r="18" fill="#caff00"/>
    
</svg>
