<?xml version="1.0" encoding="UTF-8"?>
<svg xmlns="http://www.w3.org/2000/svg" viewBox="0 0 1200 900" role="img" aria-label="Triada tracking prototype">
  
  <defs>
    <linearGradient id="bgSoft" x1="0%" y1="0%" x2="100%" y2="100%">
      <stop offset="0%" stop-color="#f9f9ff"/>
      <stop offset="100%" stop-color="#eef4ff"/>
    </linearGradient>
    <linearGradient id="bgBlue" x1="0%" y1="0%" x2="100%" y2="100%">
      <stop offset="0%" stop-color="#edf9ff"/>
      <stop offset="100%" stop-color="#d8efff"/>
    </linearGradient>
    <linearGradient id="bgDark" x1="0%" y1="0%" x2="100%" y2="100%">
      <stop offset="0%" stop-color="#15184b"/>
      <stop offset="100%" stop-color="#0d1036"/>
    </linearGradient>
    <filter id="shadow" x="-20%" y="-20%" width="140%" height="160%">
      <feDropShadow dx="0" dy="22" stdDeviation="18" flood-color="#21304f" flood-opacity="0.16"/>
    </filter>
    <filter id="shadowSoft" x="-20%" y="-20%" width="140%" height="160%">
      <feDropShadow dx="0" dy="12" stdDeviation="10" flood-color="#21304f" flood-opacity="0.12"/>
    </filter>
    <filter id="glow" x="-35%" y="-35%" width="170%" height="170%">
      <feDropShadow dx="0" dy="0" stdDeviation="18" flood-color="#bffb00" flood-opacity="0.4"/>
    </filter>
    <marker id="arrow" viewBox="0 0 10 10" refX="8.5" refY="5" markerWidth="7" markerHeight="7" orient="auto-start-reverse">
      <path d="M 0 0 L 10 5 L 0 10 z" fill="currentColor"/>
    </marker>
  </defs>

  <rect width="1200" height="900" fill="url(#bgSoft)"/>
  
      <circle cx="170" cy="120" r="74" fill="#dff4ff"/>
      <circle cx="1030" cy="140" r="92" fill="#edf7d8"/>
      <circle cx="1040" cy="722" r="120" fill="#eef2ff"/>
      
  <rect x="610" y="112" width="460" height="620" rx="40" fill="#ffffff" stroke="#dfe8fb" stroke-width="8"/>

      <path d="M702 192 C776 164, 844 164, 912 192 C972 216, 988 260, 979 315 C968 385, 895 404, 841 437 C787 470, 775 542, 806 604" fill="none" stroke="#caff00" stroke-width="22" stroke-linecap="round"/>
      <circle cx="702" cy="192" r="32" fill="#8bd100"/>
      <circle cx="832" cy="186" r="32" fill="#1cb0f6"/>
      <circle cx="930" cy="228" r="32" fill="#8a4cfc"/>
      <circle cx="976" cy="312" r="32" fill="#ffb000"/>
      <circle cx="953" cy="458" r="32" fill="#1cb0f6"/>
      <circle cx="865" cy="584" r="32" fill="#8bd100"/>
      
  <rect x="622" y="770" width="154" height="84" rx="24" fill="#f8fbff" stroke="#e0e8fb" stroke-width="6"/>

      
  <rect x="804" y="770" width="154" height="84" rx="24" fill="#f8fbff" stroke="#e0e8fb" stroke-width="6"/>

      <rect x="648" y="804" width="100" height="16" rx="8" fill="#8bd100"/>
      <rect x="830" y="804" width="80" height="16" rx="8" fill="#1cb0f6"/>
      
  <rect x="630" y="520" width="154" height="114" rx="24" fill="#f8fbff" stroke="#e0e8fb" stroke-width="6"/>

      
  <rect x="806" y="500" width="138" height="136" rx="24" fill="#f8fbff" stroke="#e0e8fb" stroke-width="6"/>

      <circle cx="702" cy="562" r="18" fill="#8bd100"/>
      <circle cx="872" cy="570" r="18" fill="#1cb0f6"/>
      
  <g transform="translate(220 560) scale(1.08)">
    <ellipse cx="0" cy="176" rx="68" ry="14" fill="#22324a" opacity="0.13"/>
    <rect x="-50" y="86" width="100" height="114" rx="40" fill="#8bd100"/>
    <rect x="-18" y="112" width="36" height="78" rx="18" fill="#f7fbff" opacity="0.95"/>
    <circle cx="0" cy="46" r="68" fill="#f7fbff"/>
    <circle cx="-42" cy="0" r="26" fill="#24344a"/>
    <circle cx="42" cy="0" r="26" fill="#24344a"/>
    <ellipse cx="-26" cy="34" rx="20" ry="24" fill="#24344a" transform="rotate(-20 -26 34)"/>
    <ellipse cx="26" cy="34" rx="20" ry="24" fill="#24344a" transform="rotate(20 26 34)"/>
    <circle cx="-22" cy="44" r="8" fill="#263143"/>
    <circle cx="22" cy="44" r="8" fill="#263143"/>
    <circle cx="-19" cy="41" r="2.2" fill="#ffffff"/>
    <circle cx="25" cy="41" r="2.2" fill="#ffffff"/>
    <ellipse cx="0" cy="56" rx="26" ry="22" fill="#fff9f3"/>
    <circle cx="0" cy="54" r="6.6" fill="#1cb0f6"/>
    <path d="M-8 64 C-2 70, 2 70, 8 64" fill="none" stroke="#24344a" stroke-width="5" stroke-linecap="round"/>
    <circle cx="-46" cy="56" r="8" fill="#ffb7be" opacity="0.8"/>
    <circle cx="46" cy="56" r="8" fill="#ffb7be" opacity="0.8"/>
    <rect x="-78" y="92" width="28" height="70" rx="14" fill="#8bd100" transform="rotate(-24 -78 92)"/>
    <rect x="50" y="80" width="28" height="84" rx="14" fill="#8bd100" transform="rotate(18 50 80)"/>
    <rect x="-45" y="168" width="28" height="22" rx="10" fill="#1cb0f6"/>
    <rect x="17" y="168" width="28" height="22" rx="10" fill="#1cb0f6"/>
    <path d="M-73 133 C-90 154, -86 166, -66 170" fill="none" stroke="#24344a" stroke-width="7" stroke-linecap="round"/>
    <path d="M71 122 C88 144, 92 158, 82 170" fill="none" stroke="#24344a" stroke-width="7" stroke-linecap="round"/>
  </g>

      <rect x="180" y="286" width="280" height="176" rx="42" fill="#ffffff" stroke="#dfe8fb" stroke-width="8" filter="url(#shadowSoft)"/>
      <path d="M232 386 C280 318, 322 322, 392 370" fill="none" stroke="#24344a" stroke-width="16" stroke-linecap="round"/>
      <circle cx="220" cy="392" r="28" fill="#8a4cfc"/>
      <circle cx="354" cy="332" r="28" fill="#1cb0f6"/>
      <circle cx="414" cy="356" r="28" fill="#caff00"/>
      <rect x="232" y="326" width="96" height="22" rx="11" fill="#caff00"/>
      <path d="M336 300 q24 20 38 0 q-3 28 -22 42 q-17 -16 -16 -42Z" fill="#ffb000"/>
    
</svg>
