<?xml version="1.0" encoding="UTF-8"?>
<svg xmlns="http://www.w3.org/2000/svg" viewBox="0 0 1200 900" role="img" aria-label="Triada progress prototype">
  
  <defs>
    <linearGradient id="bgSoft" x1="0%" y1="0%" x2="100%" y2="100%">
      <stop offset="0%" stop-color="#f9f9ff"/>
      <stop offset="100%" stop-color="#eef4ff"/>
    </linearGradient>
    <linearGradient id="bgBlue" x1="0%" y1="0%" x2="100%" y2="100%">
      <stop offset="0%" stop-color="#edf9ff"/>
      <stop offset="100%" stop-color="#d8efff"/>
    </linearGradient>
    <linearGradient id="bgDark" x1="0%" y1="0%" x2="100%" y2="100%">
      <stop offset="0%" stop-color="#15184b"/>
      <stop offset="100%" stop-color="#0d1036"/>
    </linearGradient>
    <filter id="shadow" x="-20%" y="-20%" width="140%" height="160%">
      <feDropShadow dx="0" dy="22" stdDeviation="18" flood-color="#21304f" flood-opacity="0.16"/>
    </filter>
    <filter id="shadowSoft" x="-20%" y="-20%" width="140%" height="160%">
      <feDropShadow dx="0" dy="12" stdDeviation="10" flood-color="#21304f" flood-opacity="0.12"/>
    </filter>
    <filter id="glow" x="-35%" y="-35%" width="170%" height="170%">
      <feDropShadow dx="0" dy="0" stdDeviation="18" flood-color="#bffb00" flood-opacity="0.4"/>
    </filter>
    <marker id="arrow" viewBox="0 0 10 10" refX="8.5" refY="5" markerWidth="7" markerHeight="7" orient="auto-start-reverse">
      <path d="M 0 0 L 10 5 L 0 10 z" fill="currentColor"/>
    </marker>
  </defs>

  <rect width="1200" height="900" fill="url(#bgBlue)"/>
  
      <circle cx="170" cy="150" r="66" fill="#f9f9ff"/>
      <circle cx="1030" cy="180" r="104" fill="#edf7d8"/>
      <rect x="248" y="170" width="704" height="88" rx="44" fill="#ffffff" stroke="#dfe8fb" stroke-width="8"/>
      <rect x="272" y="194" width="204" height="40" rx="20" fill="#8bd100"/>
      <rect x="502" y="194" width="164" height="40" rx="20" fill="#1cb0f6"/>
      <rect x="694" y="194" width="176" height="40" rx="20" fill="#8a4cfc"/>
      <circle cx="558" cy="470" r="212" fill="#ffffff" stroke="#dfe8fb" stroke-width="8" filter="url(#shadow)"/>
      <circle cx="558" cy="470" r="152" fill="none" stroke="#caff00" stroke-width="28"/>
      <circle cx="558" cy="470" r="94" fill="none" stroke="#1cb0f6" stroke-width="28"/>
      <circle cx="558" cy="470" r="42" fill="#8a4cfc"/>
      
  <g transform="translate(318 650) scale(0.96)">
    <ellipse cx="0" cy="176" rx="68" ry="14" fill="#22324a" opacity="0.13"/>
    <rect x="-50" y="86" width="100" height="114" rx="40" fill="#8bd100"/>
    <rect x="-18" y="112" width="36" height="78" rx="18" fill="#f7fbff" opacity="0.95"/>
    <circle cx="0" cy="46" r="68" fill="#f7fbff"/>
    <circle cx="-42" cy="0" r="26" fill="#24344a"/>
    <circle cx="42" cy="0" r="26" fill="#24344a"/>
    <ellipse cx="-26" cy="34" rx="20" ry="24" fill="#24344a" transform="rotate(-20 -26 34)"/>
    <ellipse cx="26" cy="34" rx="20" ry="24" fill="#24344a" transform="rotate(20 26 34)"/>
    <circle cx="-22" cy="44" r="8" fill="#263143"/>
    <circle cx="22" cy="44" r="8" fill="#263143"/>
    <circle cx="-19" cy="41" r="2.2" fill="#ffffff"/>
    <circle cx="25" cy="41" r="2.2" fill="#ffffff"/>
    <ellipse cx="0" cy="56" rx="26" ry="22" fill="#fff9f3"/>
    <circle cx="0" cy="54" r="6.6" fill="#1cb0f6"/>
    <path d="M-8 64 C-2 70, 2 70, 8 64" fill="none" stroke="#24344a" stroke-width="5" stroke-linecap="round"/>
    <circle cx="-46" cy="56" r="8" fill="#ffb7be" opacity="0.8"/>
    <circle cx="46" cy="56" r="8" fill="#ffb7be" opacity="0.8"/>
    <rect x="-78" y="92" width="28" height="70" rx="14" fill="#8bd100" transform="rotate(-24 -78 92)"/>
    <rect x="50" y="80" width="28" height="84" rx="14" fill="#8bd100" transform="rotate(18 50 80)"/>
    <rect x="-45" y="168" width="28" height="22" rx="10" fill="#1cb0f6"/>
    <rect x="17" y="168" width="28" height="22" rx="10" fill="#1cb0f6"/>
    <path d="M-73 133 C-90 154, -86 166, -66 170" fill="none" stroke="#24344a" stroke-width="7" stroke-linecap="round"/>
    <path d="M71 122 C88 144, 92 158, 82 170" fill="none" stroke="#24344a" stroke-width="7" stroke-linecap="round"/>
  </g>

      <rect x="746" y="530" width="270" height="174" rx="38" fill="#ffffff" stroke="#dfe8fb" stroke-width="8"/>
      <rect x="776" y="564" width="206" height="20" rx="10" fill="#dfe8fb"/>
      <rect x="776" y="606" width="160" height="20" rx="10" fill="#8bd100"/>
      <rect x="776" y="648" width="186" height="20" rx="10" fill="#1cb0f6"/>
      <circle cx="886" cy="784" r="36" fill="#ffb000"/>
      <circle cx="996" cy="780" r="22" fill="#8a4cfc"/>
      <rect x="790" y="730" width="168" height="18" rx="9" fill="#dfe8fb"/>
      <path d="M376 272 L424 214" stroke="#1cb0f6" stroke-width="12" stroke-linecap="round"/>
      <path d="M784 308 L868 252" stroke="#8bd100" stroke-width="12" stroke-linecap="round"/>
      <path d="M876 316 L920 384" stroke="#8a4cfc" stroke-width="12" stroke-linecap="round"/>
      
  <rect x="166" y="744" width="174" height="70" rx="24" fill="#ffffff" stroke="#dfe8fb" stroke-width="6"/>

      
  <rect x="372" y="744" width="174" height="70" rx="24" fill="#ffffff" stroke="#dfe8fb" stroke-width="6"/>

      
  <rect x="578" y="744" width="174" height="70" rx="24" fill="#ffffff" stroke="#dfe8fb" stroke-width="6"/>

    
</svg>
