<?xml version="1.0" encoding="UTF-8"?>
<svg xmlns="http://www.w3.org/2000/svg" viewBox="0 0 1200 900" role="img" aria-label="Triada super section prototype">
  
  <defs>
    <linearGradient id="bgSoft" x1="0%" y1="0%" x2="100%" y2="100%">
      <stop offset="0%" stop-color="#f9f9ff"/>
      <stop offset="100%" stop-color="#eef4ff"/>
    </linearGradient>
    <linearGradient id="bgBlue" x1="0%" y1="0%" x2="100%" y2="100%">
      <stop offset="0%" stop-color="#edf9ff"/>
      <stop offset="100%" stop-color="#d8efff"/>
    </linearGradient>
    <linearGradient id="bgDark" x1="0%" y1="0%" x2="100%" y2="100%">
      <stop offset="0%" stop-color="#15184b"/>
      <stop offset="100%" stop-color="#0d1036"/>
    </linearGradient>
    <filter id="shadow" x="-20%" y="-20%" width="140%" height="160%">
      <feDropShadow dx="0" dy="22" stdDeviation="18" flood-color="#21304f" flood-opacity="0.16"/>
    </filter>
    <filter id="shadowSoft" x="-20%" y="-20%" width="140%" height="160%">
      <feDropShadow dx="0" dy="12" stdDeviation="10" flood-color="#21304f" flood-opacity="0.12"/>
    </filter>
    <filter id="glow" x="-35%" y="-35%" width="170%" height="170%">
      <feDropShadow dx="0" dy="0" stdDeviation="18" flood-color="#bffb00" flood-opacity="0.4"/>
    </filter>
    <marker id="arrow" viewBox="0 0 10 10" refX="8.5" refY="5" markerWidth="7" markerHeight="7" orient="auto-start-reverse">
      <path d="M 0 0 L 10 5 L 0 10 z" fill="currentColor"/>
    </marker>
  </defs>

  <rect width="1200" height="900" fill="url(#bgDark)"/>
  
      <ellipse cx="340" cy="610" rx="176" ry="132" fill="#ffffff" opacity="0.98"/>
      <ellipse cx="340" cy="610" rx="176" ry="132" fill="none" stroke="#ffffff" stroke-width="10"/>
      
  <g transform="translate(364 460) scale(1.32)">
    <ellipse cx="0" cy="176" rx="68" ry="14" fill="#22324a" opacity="0.13"/>
    <rect x="-50" y="86" width="100" height="114" rx="40" fill="#1cb0f6"/>
    <rect x="-18" y="112" width="36" height="78" rx="18" fill="#f7fbff" opacity="0.95"/>
    <circle cx="0" cy="46" r="68" fill="#f7fbff"/>
    <circle cx="-42" cy="0" r="26" fill="#24344a"/>
    <circle cx="42" cy="0" r="26" fill="#24344a"/>
    <ellipse cx="-26" cy="34" rx="20" ry="24" fill="#24344a" transform="rotate(-20 -26 34)"/>
    <ellipse cx="26" cy="34" rx="20" ry="24" fill="#24344a" transform="rotate(20 26 34)"/>
    <circle cx="-22" cy="44" r="8" fill="#263143"/>
    <circle cx="22" cy="44" r="8" fill="#263143"/>
    <circle cx="-19" cy="41" r="2.2" fill="#ffffff"/>
    <circle cx="25" cy="41" r="2.2" fill="#ffffff"/>
    <ellipse cx="0" cy="56" rx="26" ry="22" fill="#fff9f3"/>
    <circle cx="0" cy="54" r="6.6" fill="#caff00"/>
    <path d="M-8 64 C-2 70, 2 70, 8 64" fill="none" stroke="#24344a" stroke-width="5" stroke-linecap="round"/>
    <circle cx="-46" cy="56" r="8" fill="#ffb7be" opacity="0.8"/>
    <circle cx="46" cy="56" r="8" fill="#ffb7be" opacity="0.8"/>
    <rect x="-78" y="92" width="28" height="70" rx="14" fill="#1cb0f6" transform="rotate(-24 -78 92)"/>
    <rect x="50" y="80" width="28" height="84" rx="14" fill="#1cb0f6" transform="rotate(18 50 80)"/>
    <rect x="-45" y="168" width="28" height="22" rx="10" fill="#caff00"/>
    <rect x="17" y="168" width="28" height="22" rx="10" fill="#caff00"/>
    <path d="M-73 133 C-90 154, -86 166, -66 170" fill="none" stroke="#24344a" stroke-width="7" stroke-linecap="round"/>
    <path d="M71 122 C88 144, 92 158, 82 170" fill="none" stroke="#24344a" stroke-width="7" stroke-linecap="round"/>
  </g>

      <rect x="634" y="212" width="392" height="192" rx="38" fill="#ffffff" stroke="#caff00" stroke-width="8"/>
      <rect x="662" y="244" width="200" height="22" rx="11" fill="#caff00"/>
      <rect x="662" y="286" width="262" height="16" rx="8" fill="#dfe8fb"/>
      <rect x="662" y="320" width="124" height="16" rx="8" fill="#dfe8fb"/>
      <rect x="634" y="448" width="392" height="192" rx="38" fill="#121342" stroke="#caff00" stroke-width="8"/>
      <rect x="666" y="480" width="158" height="18" rx="9" fill="#caff00"/>
      <rect x="666" y="516" width="250" height="16" rx="8" fill="#24344a"/>
      <rect x="666" y="548" width="220" height="16" rx="8" fill="#24344a"/>
      <rect x="666" y="580" width="186" height="16" rx="8" fill="#24344a"/>
      <path d="M956 250 l48 24 l-48 24 l-48 -24 z" fill="#8a4cfc"/>
      <path d="M950 520 l44 22 l-44 22 l-44 -22 z" fill="#1cb0f6"/>
      <path d="M226 210 l34 18 l-34 18 l-34 -18 z" fill="#caff00"/>
      <circle cx="216" cy="684" r="24" fill="#ffb000"/>
      <circle cx="962" cy="696" r="28" fill="#caff00"/>
      <path d="M572 734 C676 698, 772 696, 856 728" fill="none" stroke="#caff00" stroke-width="14" stroke-linecap="round"/>
      <circle cx="620" cy="740" r="16" fill="#1cb0f6"/>
      <circle cx="764" cy="732" r="16" fill="#8a4cfc"/>
      <circle cx="890" cy="748" r="16" fill="#ffb000"/>
    
</svg>
