<svg width="360" height="520" viewBox="0 0 360 520" fill="none" xmlns="http://www.w3.org/2000/svg">
  <rect x="72" y="24" width="216" height="438" rx="46" fill="#FFFFFF" stroke="#4D6400" stroke-width="10"/>
  <rect x="89" y="42" width="182" height="402" rx="34" fill="#F8FBFF"/>
  <rect x="120" y="78" width="120" height="14" rx="7" fill="#DDE4EF"/>
  <rect x="120" y="78" width="42" height="14" rx="7" fill="#CCFF00">
    <animate attributeName="width" values="42;86;58;120;42" dur="5s" repeatCount="indefinite"/>
  </rect>
  <g>
    <rect x="112" y="132" width="56" height="56" rx="14" fill="#E7EEFF"/>
    <rect x="192" y="132" width="56" height="56" rx="14" fill="#E7EEFF"/>
    <rect x="112" y="212" width="56" height="56" rx="14" fill="#E7EEFF"/>
    <rect x="192" y="212" width="56" height="56" rx="14" fill="#E7EEFF"/>
    <circle cx="140" cy="160" r="19" fill="#00D1FF"/>
    <circle cx="220" cy="160" r="20" fill="#CCFF00"/>
    <circle cx="140" cy="240" r="20" fill="#8A4CFC"/>
    <circle cx="220" cy="240" r="20" fill="#FFB020"/>
    <animateTransform attributeName="transform" type="translate" values="0 0;0 -7;0 0" dur="3.8s" repeatCount="indefinite"/>
  </g>
  <path d="M126 340C150 314 207 311 236 340" stroke="#D8E3FB" stroke-width="12" stroke-linecap="round"/>
  <path d="M145 337C164 325 196 325 217 337" stroke="#CCFF00" stroke-width="10" stroke-linecap="round">
    <animate attributeName="d" values="M145 337C164 325 196 325 217 337;M145 337C164 350 196 350 217 337;M145 337C164 325 196 325 217 337" dur="4s" repeatCount="indefinite"/>
  </path>
  <rect x="132" y="386" width="96" height="18" rx="9" fill="#111C2D" opacity=".12"/>
</svg>
